<svg preserveAspectRatio="none" width="100%" height="100%" overflow="visible" style="display: block;" viewBox="0 0 12 12" fill="none" xmlns="http://www.w3.org/2000/svg">
<g id="ArrowUpRight">
<path id="Vector" d="M10 3.03472V8.36112C10 8.46979 9.95685 8.574 9.88001 8.65084C9.80317 8.72768 9.69896 8.77085 9.59029 8.77085C9.48163 8.77085 9.37741 8.72768 9.30057 8.65084C9.22374 8.574 9.18057 8.46979 9.18057 8.36112V4.02369L3.3246 9.88017C3.24772 9.95705 3.14345 10.0002 3.03472 10.0002C2.926 10.0002 2.82172 9.95705 2.74484 9.88017C2.66796 9.80329 2.62477 9.69902 2.62477 9.59029C2.62477 9.48157 2.66796 9.37729 2.74484 9.30041L8.60132 3.44445H4.26389C4.15523 3.44445 4.05101 3.40128 3.97417 3.32444C3.89734 3.2476 3.85417 3.14339 3.85417 3.03472C3.85417 2.92606 3.89734 2.82184 3.97417 2.74501C4.05101 2.66817 4.15523 2.625 4.26389 2.625H9.59029C9.69896 2.625 9.80317 2.66817 9.88001 2.74501C9.95685 2.82184 10 2.92606 10 3.03472Z" fill="var(--fill-0, black)"/>
</g>
</svg>
